<svg xmlns="http://www.w3.org/2000/svg" viewBox="0 0 24 24" height="24" width="24" id="Facebook-Logo--Streamline-Ultimate"><desc>Facebook Logo Streamline Icon: https://streamlinehq.com</desc><path d="M18.3778 7.2666C18.286 7.1621 18.1542 7.1016 18.0152 7.1H14.3206V5.7182C14.3206 5.4438 14.3794 5.1302 14.8204 5.1302H17.7604C17.8917 5.1388 18.0191 5.0842 18.1034 4.9832C18.1925 4.8954 18.242 4.7751 18.2406 4.65V0.73C18.2406 0.4594 18.0212 0.24 17.7506 0.24H13.5072C8.8032 0.24 8.4406 4.258 8.4406 5.483V7.1H5.9906C5.72 7.1 5.5006 7.3194 5.5006 7.59V11.51C5.5006 11.7806 5.72 12 5.9906 12H8.4406V23.27C8.4406 23.5406 8.66 23.76 8.9306 23.76H13.8306C14.1012 23.76 14.3206 23.5406 14.3206 23.27V12H17.6036C17.8562 12.0013 18.0683 11.8103 18.0936 11.559L18.4954 7.639C18.5134 7.5036 18.4703 7.3671 18.3778 7.2666Z" fill="#000000" stroke-width="1"></path></svg>