<svg xmlns="http://www.w3.org/2000/svg" fill="none" viewBox="0 0 24 24" height="24" width="24" id="Tiktok-Logo-2--Streamline-Ultimate"><desc>Tiktok Logo 2 Streamline Icon: https://streamlinehq.com</desc><path stroke="#000000" stroke-linecap="round" stroke-linejoin="round" d="M13.153846153846155 9.461538461538462c0.5815384615384616 0.6493846153846154 1.292769230769231 1.169723076923077 2.087630769230769 1.5274153846153848 0.7949538461538461 0.3576923076923077 1.6560923076923078 0.5448923076923078 2.5277538461538462 0.5495076923076924V9c-0.9236307692307693 0.0004430769230769231 -1.8208615384615385 -0.30836307692307696 -2.5486153846153847 -0.8771723076923077 -0.7277538461538462 -0.5688 -1.244123076923077 -1.3648707692307693 -1.4667692307692308 -2.261289230769231l-0.13846153846153847 -0.5538461538461539h-2.769230769230769v11.076923076923077c0 0.4564615384615385 -0.13532307692307693 0.9025846153846154 -0.3888923076923077 1.2820615384615386s-0.6140307692307693 0.675323076923077 -1.035692307692308 0.8499692307692308c-0.4216615384615385 0.17464615384615387 -0.8856646153846155 0.22033846153846154 -1.3333107692307693 0.13135384615384618 -0.4476553846153846 -0.08907692307692308 -0.85884 -0.30886153846153847 -1.1815846153846155 -0.6315692307692309 -0.32273538461538465 -0.32280000000000003 -0.54252 -0.7339384615384617 -0.63156 -1.1816307692307693 -0.08904923076923077 -0.4476 -0.04334769230769231 -0.9116307692307694 0.13131692307692308 -1.3332923076923078 0.1746646153846154 -0.4216615384615385 0.4704461538461539 -0.782123076923077 0.8499507692307693 -1.035692307692308 0.3794953846153846 -0.25356923076923077 0.8256646153846154 -0.3888923076923077 1.28208 -0.3888923076923077" stroke-width="1.5"></path><path stroke="#000000" stroke-linecap="round" stroke-linejoin="round" d="M18 1.3846153846153846h-12c-2.549003076923077 0 -4.615384615384616 2.0663815384615383 -4.615384615384616 4.615384615384616v12c0 2.5489846153846156 2.0663815384615383 4.615384615384616 4.615384615384616 4.615384615384616h12c2.5489846153846156 0 4.615384615384616 -2.0664000000000002 4.615384615384616 -4.615384615384616v-12c0 -2.549003076923077 -2.0664000000000002 -4.615384615384616 -4.615384615384616 -4.615384615384616Z" stroke-width="1.5"></path></svg>